<svg width="78" height="78" viewBox="0 0 78 78" fill="none" xmlns="http://www.w3.org/2000/svg">
<path d="M76.7081 27.0989L40.1456 7.59887C39.793 7.41108 39.3995 7.31287 39 7.31287C38.6005 7.31287 38.207 7.41108 37.8544 7.59887L1.29188 27.0989C0.90189 27.3067 0.575741 27.6167 0.34832 27.9956C0.120899 28.3745 0.000762939 28.8081 0.000762939 29.25C0.000762939 29.6919 0.120899 30.1255 0.34832 30.5044C0.575741 30.8833 0.90189 31.1932 1.29188 31.4011L9.75 35.9135V50.6664C9.74747 51.8637 10.1881 53.0196 10.987 53.9114C14.9784 58.3568 23.921 65.8125 39 65.8125C43.9998 65.8538 48.9622 64.9482 53.625 63.1434V73.125C53.625 73.7714 53.8818 74.3914 54.3389 74.8485C54.796 75.3057 55.416 75.5625 56.0625 75.5625C56.709 75.5625 57.329 75.3057 57.7861 74.8485C58.2432 74.3914 58.5 73.7714 58.5 73.125V60.7882C61.6785 58.9533 64.5508 56.6331 67.013 53.9114C67.8119 53.0196 68.2525 51.8637 68.25 50.6664V35.9135L76.7081 31.4011C77.0981 31.1932 77.4243 30.8833 77.6517 30.5044C77.8791 30.1255 77.9992 29.6919 77.9992 29.25C77.9992 28.8081 77.8791 28.3745 77.6517 27.9956C77.4243 27.6167 77.0981 27.3067 76.7081 27.0989ZM39 60.9375C25.8162 60.9375 18.0619 54.4964 14.625 50.6664V38.5125L37.8544 50.9011C38.207 51.0888 38.6005 51.1871 39 51.1871C39.3995 51.1871 39.793 51.0888 40.1456 50.9011L53.625 43.7135V57.8327C49.7859 59.6243 44.9475 60.9375 39 60.9375ZM63.375 50.6543C61.9139 52.2756 60.2791 53.7316 58.5 54.9961V41.1114L63.375 38.5125V50.6543ZM57.2812 36.2395L57.2142 36.1999L40.1517 27.0989C39.5824 26.8081 38.9217 26.7526 38.3119 26.9443C37.7021 27.136 37.192 27.5596 36.8916 28.1238C36.5911 28.688 36.5243 29.3477 36.7055 29.9607C36.8867 30.5737 37.3015 31.0909 37.8605 31.4011L52.1016 39L39 45.9864L7.61719 29.25L39 12.5135L70.3828 29.25L57.2812 36.2395Z" fill="white"/>
</svg>
