<svg width="92" height="92" viewBox="0 0 92 92" fill="none" xmlns="http://www.w3.org/2000/svg">
<path d="M77.625 14.375H14.375C12.85 14.375 11.3875 14.9808 10.3091 16.0591C9.2308 17.1375 8.625 18.6 8.625 20.125V71.875C8.625 73.4 9.2308 74.8625 10.3091 75.9409C11.3875 77.0192 12.85 77.625 14.375 77.625H19.187C19.7311 77.6252 20.2641 77.4709 20.7241 77.1802C21.184 76.8895 21.552 76.4742 21.7853 75.9827C23.1834 73.031 25.3906 70.5369 28.1504 68.7904C30.9101 67.0439 34.109 66.1167 37.375 66.1167C40.641 66.1167 43.8399 67.0439 46.5996 68.7904C49.3594 70.5369 51.5667 73.031 52.9647 75.9827C53.198 76.4742 53.566 76.8895 54.0259 77.1802C54.4859 77.4709 55.0189 77.6252 55.563 77.625H77.625C79.15 77.625 80.6125 77.0192 81.6909 75.9409C82.7692 74.8625 83.375 73.4 83.375 71.875V20.125C83.375 18.6 82.7692 17.1375 81.6909 16.0591C80.6125 14.9808 79.15 14.375 77.625 14.375ZM28.75 51.75C28.75 50.0441 29.2558 48.3766 30.2036 46.9582C31.1513 45.5398 32.4983 44.4343 34.0744 43.7815C35.6504 43.1287 37.3846 42.9579 39.0577 43.2907C40.7307 43.6235 42.2676 44.445 43.4738 45.6512C44.68 46.8574 45.5015 48.3943 45.8343 50.0673C46.1671 51.7404 45.9963 53.4746 45.3435 55.0506C44.6907 56.6267 43.5852 57.9737 42.1668 58.9214C40.7484 59.8692 39.0809 60.375 37.375 60.375C35.0875 60.375 32.8937 59.4663 31.2762 57.8488C29.6587 56.2313 28.75 54.0375 28.75 51.75ZM77.625 71.875H57.2952C54.8943 67.7473 51.2753 64.4634 46.9344 62.4737C49.1107 60.5359 50.6467 57.9824 51.3387 55.1518C52.0308 52.3211 51.8462 49.3469 50.8094 46.6236C49.7727 43.9002 47.9327 41.5562 45.5335 39.9024C43.1343 38.2485 40.289 37.3629 37.375 37.3629C34.461 37.3629 31.6157 38.2485 29.2165 39.9024C26.8173 41.5562 24.9773 43.9002 23.9406 46.6236C22.9038 49.3469 22.7192 52.3211 23.4113 55.1518C24.1033 57.9824 25.6393 60.5359 27.8156 62.4737C23.4747 64.4634 19.8557 67.7473 17.4548 71.875H14.375V20.125H77.625V71.875ZM20.125 34.5V28.75C20.125 27.9875 20.4279 27.2562 20.9671 26.7171C21.5062 26.1779 22.2375 25.875 23 25.875H69C69.7625 25.875 70.4938 26.1779 71.0329 26.7171C71.5721 27.2562 71.875 27.9875 71.875 28.75V63.25C71.875 64.0125 71.5721 64.7438 71.0329 65.2829C70.4938 65.8221 69.7625 66.125 69 66.125H63.25C62.4875 66.125 61.7562 65.8221 61.2171 65.2829C60.6779 64.7438 60.375 64.0125 60.375 63.25C60.375 62.4875 60.6779 61.7562 61.2171 61.2171C61.7562 60.6779 62.4875 60.375 63.25 60.375H66.125V31.625H25.875V34.5C25.875 35.2625 25.5721 35.9938 25.0329 36.5329C24.4938 37.0721 23.7625 37.375 23 37.375C22.2375 37.375 21.5062 37.0721 20.9671 36.5329C20.4279 35.9938 20.125 35.2625 20.125 34.5Z" fill="white"/>
</svg>
