<svg width="71" height="71" viewBox="0 0 71 71" fill="none" xmlns="http://www.w3.org/2000/svg">
<path d="M62.8905 19.1368C62.7559 18.8041 62.5426 18.5091 62.269 18.2769C61.9953 18.0448 61.6694 17.8825 61.3193 17.804C60.9691 17.7254 60.6052 17.733 60.2586 17.826C59.912 17.919 59.5932 18.0947 59.3294 18.338L48.1524 28.6524L43.3738 27.6263L42.3476 22.8476L52.662 11.6707C52.9053 11.4069 53.081 11.088 53.174 10.7415C53.2671 10.3949 53.2746 10.0309 53.1961 9.68076C53.1175 9.33061 52.9552 9.00473 52.7231 8.73108C52.491 8.45743 52.1959 8.24416 51.8633 8.10957C48.8317 6.88325 45.5454 6.42023 42.293 6.76118C39.0407 7.10213 35.9218 8.23663 33.2105 10.065C30.4992 11.8933 28.2784 14.3596 26.7432 17.2471C25.2081 20.1345 24.4056 23.3549 24.4063 26.625C24.4027 29.3865 24.9692 32.119 26.0703 34.6514L9.37145 49.0899C9.32985 49.1232 9.29102 49.162 9.25219 49.1981C7.58761 50.8626 6.65247 53.1203 6.65247 55.4743C6.65247 56.64 6.88205 57.7942 7.32811 58.871C7.77417 59.9479 8.42798 60.9264 9.25219 61.7506C10.0764 62.5748 11.0549 63.2286 12.1318 63.6747C13.2087 64.1208 14.3629 64.3504 15.5285 64.3504C17.8825 64.3504 20.1402 63.4152 21.8048 61.7506C21.8408 61.7146 21.8797 61.673 21.9129 61.6341L36.3487 44.9297C39.3896 46.2646 42.7153 46.8199 46.0249 46.5455C49.3345 46.2711 52.5235 45.1757 55.303 43.3582C58.0825 41.5408 60.3649 39.0589 61.9435 36.1371C63.5221 33.2153 64.3471 29.946 64.3438 26.625C64.3481 24.0585 63.8545 21.5154 62.8905 19.1368ZM44.375 42.1563C41.7488 42.1527 39.1661 41.4848 36.8673 40.2149C36.4219 39.9689 35.9056 39.8834 35.4047 39.9727C34.9038 40.0621 34.4488 40.3209 34.1161 40.7058L18.6125 58.661C17.7736 59.4581 16.6564 59.8959 15.4993 59.8811C14.3422 59.8662 13.2366 59.4 12.4183 58.5817C11.6001 57.7634 11.1338 56.6579 11.119 55.5007C11.1042 54.3436 11.542 53.2265 12.339 52.3875L30.2804 36.8868C30.6659 36.5538 30.9252 36.0984 31.0146 35.5969C31.1039 35.0954 31.018 34.5784 30.7713 34.1327C29.3569 31.5746 28.6932 28.6693 28.8563 25.7508C29.0195 22.8323 30.0029 20.0191 31.6936 17.6345C33.3843 15.25 35.7136 13.391 38.4137 12.2712C41.1138 11.1515 44.0751 10.8164 46.9571 11.3046L38.3039 20.6816C38.0632 20.9427 37.8887 21.2579 37.795 21.6006C37.7014 21.9432 37.6914 22.3034 37.7659 22.6507L39.3357 29.9532C39.4254 30.3708 39.6339 30.7537 39.936 31.0558C40.238 31.3578 40.6209 31.5663 41.0386 31.6561L48.3466 33.2258C48.6939 33.3003 49.054 33.2903 49.3967 33.1967C49.7393 33.1031 50.0545 32.9285 50.3157 32.6878L59.6927 24.0347C60.0665 26.2617 59.9507 28.5435 59.3533 30.7213C58.756 32.8991 57.6913 34.9207 56.2335 36.6453C54.7757 38.37 52.9597 39.7564 50.9118 40.7081C48.8639 41.6598 46.6333 42.154 44.375 42.1563Z" fill="white"/>
</svg>
